<svg width="172" height="44" viewBox="0 0 172 44" fill="none" xmlns="http://www.w3.org/2000/svg">
<path d="M7.95432 8.73671L0 38.4676H5.47674L7.17193 31.2957H14.3439L16.039 38.4676H21.5158L13.6919 8.73671H7.95432ZM8.34551 26.4709L10.6927 16.5606L13.0399 26.4709H8.34551Z" fill="black"/>
<path d="M16.5606 0H10.6926L8.99747 6.65033H12.2574L16.5606 0Z" fill="black"/>
<path d="M41.3364 20.9942C39.5108 19.8206 38.3372 18.9078 37.8156 18.2558C37.1636 17.4734 36.7724 16.8214 36.7724 15.9086C36.7724 14.3438 37.8156 13.3006 39.25 13.3006C40.6844 13.3006 41.858 14.3438 42.3796 16.5606L46.6827 14.2134C45.7699 10.4319 43.0316 8.34549 39.3804 8.34549C34.9469 8.34549 31.8173 11.3447 31.8173 15.9086C31.8173 19.6902 33.5125 22.4285 37.6852 25.0365C40.8148 26.9925 42.1188 28.6877 42.1188 30.6437C42.1188 32.73 40.8148 34.034 38.9892 34.034C36.642 34.034 34.9469 32.078 34.6861 28.4269L30.1221 30.9045C30.9045 35.99 34.0341 39.1196 38.9892 39.1196C41.4668 39.1196 43.5532 38.3372 45.1179 36.9028C46.6827 35.4684 47.4651 33.382 47.4651 31.0349C47.4651 26.6013 45.7699 23.8629 41.3364 20.9942Z" fill="black"/>
<path d="M125.052 27.7749L116.837 8.73671H111.752V38.4676H116.576V19.5598L124.792 38.4676H129.877V8.73671H125.052V27.7749Z" fill="black"/>
<path d="M75.5008 8.73671H69.6329L64.0258 19.951V8.73671H58.549V38.4676H64.0258V24.1238L70.4153 38.4676H76.1528L68.8505 22.0374L75.5008 8.73671Z" fill="black"/>
<path d="M140.309 8.73671V13.6919H145.916V38.4676H151.262V13.6919H157V8.73671H140.309Z" fill="black"/>
<path d="M91.8007 25.1669H98.1902V20.0814H91.8007V13.6919H100.146V8.73671H86.4543V38.4676H100.537V33.5125H91.8007V25.1669Z" fill="black"/>
</svg>
